<svg width="50" height="51" viewBox="0 0 50 51" fill="none" xmlns="http://www.w3.org/2000/svg">
<path d="M31.8608 18.0608L26.1608 0.860825C25.9608 0.160825 25.1608 -0.139175 24.5608 0.060825C24.1608 0.160825 23.8608 0.460825 23.7608 0.860825L18.0608 18.0608L0.860821 23.7608C0.160821 23.9608 -0.139175 24.7608 0.0608255 25.4608C0.160826 25.8608 0.460821 26.1608 0.860821 26.2608L17.9608 31.9608L18.1608 32.0608V32.3608L20.6608 40.0608L21.0608 41.3608L21.4608 42.5608L23.3608 48.6608L23.6608 49.4608C23.8608 50.1608 24.6608 50.4608 25.3608 50.2608C25.7608 50.1608 26.0608 49.8608 26.1608 49.4608L28.0608 43.8608L28.5608 42.1608L31.5608 33.0608L31.8608 32.1608L49.0608 26.4608C49.7608 26.2608 50.0608 25.4608 49.8608 24.7608C49.7608 24.3608 49.4608 24.0608 49.0608 23.9608L31.8608 18.2608V18.0608Z" fill="#FFFFFF"/>
</svg>
