<svg width="300" height="277" viewBox="0 0 300 277" fill="none" xmlns="http://www.w3.org/2000/svg">
<g clip-path="url(#clip0_215_275)">
<path d="M115.7 69.6C121 59.2 129.1 50.5 139.1 44.5L133.5 35.8C121.7 43.5 110.5 52.8 104.1 69.8C107.9 69.2 111.8 69.1 115.7 69.6ZM253.6 155.1C253.9 152.3 254.4 149 254.4 145.9C254.4 117.4 236.6 92 209.8 82.2L214.3 94.5C230.8 102.8 244 124.1 244 143.4C247.3 147 252.9 154.2 253.6 155.1ZM195.7 140.1C193 155.9 186.9 170.8 177.6 183.8C182 183.6 186.2 183.3 190.5 183C197.5 171.7 202.5 159.2 205.1 146.1L195.7 140.1ZM139.2 95.4C137.8 96.1 118.3 106.5 110.3 111.1C109.8 115.5 109.7 119.9 110.1 124.3C120.1 118.1 148.4 102 149.2 101.5L197 130L206.9 135.7C219.4 143.6 230 154 237.9 166.4C235.7 169.7 232.5 173.9 229 178.3C236 177.1 242.7 175.8 248.8 174.3C250.5 173.9 252.2 173.4 253.8 173C252.7 170.7 251.4 168.5 250.1 166.2L242.9 155.3C233.5 142.5 221.5 131.8 207.6 124C207.6 123.2 207.6 122.5 207.6 121.7C207.6 111.3 206.3 101 203.6 91L199.8 79.3C191.5 57.2 183 48.2 166.6 35.8L160.4 44.1C173.6 54.2 181 61 188.1 78H186.4C176.5 78 166.8 80.1 157.9 84.2V84.3C161.3 86.2 164.5 88.4 167.6 90.8C173.2 88.3 179.5 88.3 186.4 88.3C188.3 88.3 190.1 88.3 191.9 88.6C194.9 98 196.7 107.8 197 117.8L159.1 95.4L149.2 89.2C138.1 81.9 125.2 78 111.9 78H111.7C107.8 78 103.9 78.4 100 79.1C68.9 84.1 44 112.9 44 145.9C43.8 152.9 45.2 159.8 48.1 166.2C46.8 168.4 45.6 170.6 44.5 172.9C46.4 173.4 48.3 174 50.5 174.5C56.2 175.9 62.5 177.2 69.1 178.3C65.9 174.6 63 170.6 60.4 166.5C58.2 163 56.6 159.2 55.6 155.2C55 152.1 54.7 149 54.7 145.9C54.7 120.3 71.7 97.8 96.3 90.7C93.5 100.8 92.1 111.3 92.1 121.8C92.1 122.3 70.9 137.6 62.7 147.4C62.9 151.2 64.2 154.9 66.4 158.1L92.9 135C94.8 152.1 100.4 168.5 109.4 183.2C113.6 183.5 117.9 183.8 122.3 184C111 167.9 104.4 149 103 129.3C102.7 125.3 102.6 121.3 102.8 117.2C103.3 107.5 105 97.9 107.9 88.7C109.3 88.7 110.7 88.5 112 88.5C121.4 88.4 130.8 90.8 139.2 95.4Z" fill="url(#paint0_linear_215_275)"/>
<path d="M109.8 238.1L146.9 275.2C148.1 276.4 150.1 276.4 151.3 275.2L188.6 237.9C214.3 242.6 240.8 238.7 264.1 226.8L265.3 226.2C266.4 225.6 267 224.5 267 223.3V222C266.7 214.2 265.5 206.6 263.5 199C260.9 199.7 258.2 200.5 255.4 201.1L253.5 201.5C255 207.2 256 213.1 256.4 219C238.2 227.6 218 231 198 228.7V228.6L213.7 212.9L213.9 212.7C214.2 212.4 215.8 210.6 218.2 207.8C213.1 208.5 207.8 209 202.5 209.5L185.4 226.6L176.9 235.1L149.1 262.6L121.8 235.4V235.3C131.6 232.2 141 227.8 149.7 222.3C155.6 225.8 159.6 228.7 165.9 231.1L173.2 224.8C167.3 222.4 165 220.2 159.4 216.9C154.6 214.2 151.6 211.7 149.5 210.8C147.1 212 144.3 213.5 139.9 215.9C131.4 220.4 122.4 224.8 113.1 226.9L95.6 209.4C90.2 208.9 85 208.3 79.9 207.6L84.3 212.7L100.5 228.9L109.8 238.1ZM88.8 229.3C72.5 229.2 56.5 225.3 42 218.1C42.5 212.3 43.5 206.6 44.9 201.1L44.1 200.9C40.8 200.1 37.8 199.3 34.8 198.4C32.8 205.8 31.7 213.3 31.3 220.9V222.2C31.2 223.4 31.9 224.5 32.9 225.1L34.1 225.7C51.2 234.9 70.4 239.6 89.8 239.6C92.2 239.6 94.6 239.6 97 239.4L88.8 229.3Z" fill="url(#paint1_linear_215_275)"/>
<path d="M156.7 18.1L151 0.90001C150.8 0.20001 150 -0.0999904 149.4 0.10001C149 0.20001 148.7 0.50001 148.6 0.90001L142.9 18.1L125.7 23.8C125 24 124.7 24.8 124.9 25.5C125 25.9 125.3 26.2 125.7 26.3L142.8 32L143 32.1V32.4L145.5 40.1L145.9 41.4L146.3 42.6L148.2 48.7L148.5 49.5C148.7 50.2 149.5 50.5 150.2 50.3C150.6 50.2 150.9 49.9 151 49.5L152.9 43.9L153.4 42.2L156.4 33.1L156.7 32.2L173.9 26.5C174.6 26.3 174.9 25.5 174.7 24.8C174.6 24.4 174.3 24.1 173.9 24L156.7 18.3V18.1Z" fill="#F4C7C2"/>
<path d="M150 204.3C110.9 204.3 74.1 200.5 46.4 193.7C15.6 186.2 0 176 0 163.5C0 153.4 10.3 144.8 30.6 137.8L33.9 147.6C16.6 153.7 10.4 159.8 10.4 163.5C10.4 168.8 22.3 177.1 48.8 183.6C75.8 190.2 111.7 193.9 149.9 193.9C188.2 193.9 224.1 190.2 251 183.6C270.1 178.9 289.4 170.8 289.4 163.5C289.4 159.7 282.5 153 263 146.8L266.1 136.9C288.7 144 300 153 300 163.6C300 176.1 284.4 186.3 253.6 193.9C225.9 200.6 189.1 204.3 150 204.3Z" fill="url(#paint2_linear_215_275)"/>
</g>
<defs>
<linearGradient id="paint0_linear_215_275" x1="82.9979" y1="211.393" x2="215.475" y2="78.9155" gradientUnits="userSpaceOnUse">
<stop stop-color="#B88FFF"/>
<stop offset="0.263" stop-color="#C399F4"/>
<stop offset="0.7243" stop-color="#E0B4D7"/>
<stop offset="1" stop-color="#F4C7C2"/>
</linearGradient>
<linearGradient id="paint1_linear_215_275" x1="84.397" y1="276.747" x2="212.893" y2="148.251" gradientUnits="userSpaceOnUse">
<stop stop-color="#B88FFF"/>
<stop offset="0.263" stop-color="#C399F4"/>
<stop offset="0.7243" stop-color="#E0B4D7"/>
<stop offset="1" stop-color="#F4C7C2"/>
</linearGradient>
<linearGradient id="paint2_linear_215_275" x1="71.7561" y1="241.797" x2="228.239" y2="85.3145" gradientUnits="userSpaceOnUse">
<stop stop-color="#B88FFF"/>
<stop offset="0.263" stop-color="#C399F4"/>
<stop offset="0.7243" stop-color="#E0B4D7"/>
<stop offset="1" stop-color="#F4C7C2"/>
</linearGradient>
<clipPath id="clip0_215_275">
<rect width="300" height="276.1" fill="white"/>
</clipPath>
</defs>
</svg>
