<?xml version="1.0" encoding="utf-8"?>
<!-- Generator: Adobe Illustrator 25.0.1, SVG Export Plug-In . SVG Version: 6.00 Build 0)  -->
<svg version="1.1" id="Layer_1" xmlns="http://www.w3.org/2000/svg" xmlns:xlink="http://www.w3.org/1999/xlink" x="0px" y="0px"
	 viewBox="0 0 300 276.1" style="enable-background:new 0 0 300 276.1;" xml:space="preserve">
<style type="text/css">
	.st0{fill:url(#SVGID_1_);}
	.st1{fill:url(#SVGID_2_);}
	.st2{fill:#F4C7C2;}
	.st3{fill:url(#SVGID_3_);}
</style>
<linearGradient id="SVGID_1_" gradientUnits="userSpaceOnUse" x1="82.9979" y1="211.393" x2="215.4754" y2="78.9155">
	<stop  offset="0" style="stop-color:#B88FFF"/>
	<stop  offset="0.263" style="stop-color:#C399F4"/>
	<stop  offset="0.7243" style="stop-color:#E0B4D7"/>
	<stop  offset="1" style="stop-color:#F4C7C2"/>
</linearGradient>
<path class="st0" d="M115.7,69.6c5.3-10.4,13.4-19.1,23.4-25.1l-5.6-8.7c-11.8,7.7-23,17-29.4,34C107.9,69.2,111.8,69.1,115.7,69.6
	L115.7,69.6z M253.6,155.1L253.6,155.1c0.3-2.8,0.8-6.1,0.8-9.2c0-28.5-17.8-53.9-44.6-63.7l4.5,12.3c16.5,8.3,29.7,29.6,29.7,48.9
	C247.3,147,252.9,154.2,253.6,155.1z M195.7,140.1c-2.7,15.8-8.8,30.7-18.1,43.7c4.4-0.2,8.6-0.5,12.9-0.8c7-11.3,12-23.8,14.6-36.9
	L195.7,140.1L195.7,140.1z M139.2,95.4c-1.4,0.7-20.9,11.1-28.9,15.7c-0.5,4.4-0.6,8.8-0.2,13.2c10-6.2,38.3-22.3,39.1-22.8L197,130
	l9.9,5.7c12.5,7.9,23.1,18.3,31,30.7c-2.2,3.3-5.4,7.5-8.9,11.9c7-1.2,13.7-2.5,19.8-4c1.7-0.4,3.4-0.9,5-1.3
	c-1.1-2.3-2.4-4.5-3.7-6.8l-7.2-10.9c-9.4-12.8-21.4-23.5-35.3-31.3c0-0.8,0-1.5,0-2.3c0-10.4-1.3-20.7-4-30.7l-3.8-11.7
	c-8.3-22.1-16.8-31.1-33.2-43.5l-6.2,8.3C173.6,54.2,181,61,188.1,78h-1.7c-9.9,0-19.6,2.1-28.5,6.2v0.1c3.4,1.9,6.6,4.1,9.7,6.5
	c5.6-2.5,11.9-2.5,18.8-2.5c1.9,0,3.7,0,5.5,0.3c3,9.4,4.8,19.2,5.1,29.2l-37.9-22.4l-9.9-6.2c-11.1-7.3-24-11.2-37.3-11.2h-0.2
	c-3.9,0-7.8,0.4-11.7,1.1C68.9,84.1,44,112.9,44,145.9c-0.2,7,1.2,13.9,4.1,20.3c-1.3,2.2-2.5,4.4-3.6,6.7c1.9,0.5,3.8,1.1,6,1.6
	c5.7,1.4,12,2.7,18.6,3.8c-3.2-3.7-6.1-7.7-8.7-11.8c-2.2-3.5-3.8-7.3-4.8-11.3c-0.6-3.1-0.9-6.2-0.9-9.3c0-25.6,17-48.1,41.6-55.2
	c-2.8,10.1-4.2,20.6-4.2,31.1c0,0.5-21.2,15.8-29.4,25.6c0.2,3.8,1.5,7.5,3.7,10.7l26.5-23.1c1.9,17.1,7.5,33.5,16.5,48.2
	c4.2,0.3,8.5,0.6,12.9,0.8c6.5,0.3,0,0,0,0c-11.3-16.1-17.9-35-19.3-54.7c-0.3-4-0.4-8-0.2-12.1c0.5-9.7,2.2-19.3,5.1-28.5
	c1.4,0,2.8-0.2,4.1-0.2C121.4,88.4,130.8,90.8,139.2,95.4"/>
<linearGradient id="SVGID_2_" gradientUnits="userSpaceOnUse" x1="84.397" y1="276.7465" x2="212.8925" y2="148.251">
	<stop  offset="0" style="stop-color:#B88FFF"/>
	<stop  offset="0.263" style="stop-color:#C399F4"/>
	<stop  offset="0.7243" style="stop-color:#E0B4D7"/>
	<stop  offset="1" style="stop-color:#F4C7C2"/>
</linearGradient>
<path class="st1" d="M109.8,238.1l37.1,37.1c1.2,1.2,3.2,1.2,4.4,0h0l37.3-37.3c25.7,4.7,52.2,0.8,75.5-11.1l1.2-0.6
	c1.1-0.6,1.7-1.7,1.7-2.9v-1.3c-0.3-7.8-1.5-15.4-3.5-23c-2.6,0.7-5.3,1.5-8.1,2.1l-1.9,0.4c1.5,5.7,2.5,11.6,2.9,17.5
	c-18.2,8.6-38.4,12-58.4,9.7v-0.1l15.7-15.7l0.2-0.2c0.3-0.3,1.9-2.1,4.3-4.9c-5.1,0.7-10.4,1.2-15.7,1.7l-17.1,17.1l-8.5,8.5
	l-27.8,27.5l-27.3-27.2v-0.1c9.8-3.1,19.2-7.5,27.9-13c5.9,3.5,9.9,6.4,16.2,8.8l7.3-6.3c-5.9-2.4-8.2-4.6-13.8-7.9
	c-4.8-2.7-7.8-5.2-9.9-6.1c-2.4,1.2-5.2,2.7-9.6,5.1c-8.5,4.5-17.5,8.9-26.8,11l-17.5-17.5c-5.4-0.5-10.6-1.1-15.7-1.8l4.4,5.1
	l16.2,16.2L109.8,238.1z M88.8,229.3c-16.3-0.1-32.3-4-46.8-11.2c0.5-5.8,1.5-11.5,2.9-17l-0.8-0.2c-3.3-0.8-6.3-1.6-9.3-2.5
	c-4.4-1.3,0,0,0,0c-2,7.4-3.1,14.9-3.5,22.5v1.3c-0.1,1.2,0.6,2.3,1.6,2.9l1.2,0.6c17.1,9.2,36.3,13.9,55.7,13.9
	c2.4,0,4.8,0,7.2-0.2L88.8,229.3L88.8,229.3z"/>
<path class="st2" d="M156.7,18.1l-5.7-17.2c-0.2-0.7-1-1-1.6-0.8c-0.4,0.1-0.7,0.4-0.8,0.8l-5.7,17.2l-17.2,5.7
	c-0.7,0.2-1,1-0.8,1.7c0.1,0.4,0.4,0.7,0.8,0.8l17.1,5.7l0.2,0.1v0.3l2.5,7.7l0.4,1.3l0.4,1.2l1.9,6.1l0.3,0.8c0.2,0.7,1,1,1.7,0.8
	c0.4-0.1,0.7-0.4,0.8-0.8l1.9-5.6l0.5-1.7l3-9.1l0.3-0.9l17.2-5.7c0.7-0.2,1-1,0.8-1.7c-0.1-0.4-0.4-0.7-0.8-0.8l-17.2-5.7
	L156.7,18.1z"/>
<linearGradient id="SVGID_3_" gradientUnits="userSpaceOnUse" x1="71.7561" y1="241.7972" x2="228.2389" y2="85.3145">
	<stop  offset="0" style="stop-color:#B88FFF"/>
	<stop  offset="0.263" style="stop-color:#C399F4"/>
	<stop  offset="0.7243" style="stop-color:#E0B4D7"/>
	<stop  offset="1" style="stop-color:#F4C7C2"/>
</linearGradient>
<path class="st3" d="M150,204.3c-39.1,0-75.9-3.8-103.6-10.6C15.6,186.2,0,176,0,163.5c0-10.1,10.3-18.7,30.6-25.7l3.3,9.8
	c-17.3,6.1-23.5,12.2-23.5,15.9c0,5.3,11.9,13.6,38.4,20.1c27,6.6,62.9,10.3,101.1,10.3c38.3,0,74.2-3.7,101.1-10.3
	c19.1-4.7,38.4-12.8,38.4-20.1c0-3.8-6.9-10.5-26.4-16.7l3.1-9.9C288.7,144,300,153,300,163.6c0,12.5-15.6,22.7-46.4,30.3
	C225.9,200.6,189.1,204.3,150,204.3z"/>
</svg>
