<svg width="148" height="112" viewBox="0 0 148 112" fill="none" xmlns="http://www.w3.org/2000/svg">
<g clip-path="url(#clip0_230_26)">
<path d="M51.5374 75.906C58.9407 49.0322 85.8508 32.0167 115.963 32.7675C114.053 25.8317 119.73 19.7817 107.686 8.20035C91.3435 -7.51335 71.549 3.00927 58.0831 9.66963C44.5738 16.3462 26.6953 12.2625 17.5823 27.1065C11.612 36.8297 15.1779 49.2699 17.5335 57.3671C20.1713 66.4475 33.5666 70.1477 35.0592 75.0525C37.4582 82.939 35.2166 87.4981 41.4312 97.9937C44.1939 102.655 48.1506 106.032 52.6447 108.3C49.1276 97.9397 48.536 86.8067 51.5374 75.906Z" fill="#00D6FF"/>
<path d="M70.8272 111.952C81.6824 111.412 85.4383 105.129 90.1169 102.769C95.8104 99.9006 99.8594 100.554 108.294 98.226C123.904 93.9262 129.391 74.6366 129.391 58.4313C129.391 42.226 119.714 41.7453 116.457 34.1828C116.251 33.7021 116.088 33.2321 115.958 32.7622C85.8454 32.0113 58.9353 49.0268 51.532 75.9006C48.5306 86.8013 49.1222 97.9343 52.6393 108.295C58.2894 111.152 64.7808 112.254 70.8272 111.952Z" fill="#ADED3F"/>
<path d="M34.0279 41.7074C31.884 42.6636 29.3276 44.4299 26.9829 44.9107C23.8837 45.5427 22.8254 41.9235 22.2826 39.2875C21.1754 33.9181 41.1435 28.2355 45.1925 27.409C55.7329 25.2591 65.9206 29.7047 68.2164 40.8486C68.6289 42.8364 68.5747 44.8675 67.9885 46.8013C67.4077 48.7837 66.485 50.6311 65.3235 52.3219C60.9055 58.6636 51.2552 64.1571 43.7108 65.702C38.2615 66.804 35.0049 65.1349 34.7173 59.96C34.663 58.9336 34.8529 57.5994 36.6006 56.7243C39.7161 55.1578 43.1735 54.7581 46.4409 53.6777C49.844 52.5164 54.0124 51.5116 55.9663 48.3624C56.9813 46.7041 57.0519 44.7702 56.6719 42.9336C55.3693 36.6244 50.4953 36.2193 45.046 37.332C42.05 37.9424 38.4569 39.4549 34.0279 41.7074Z" fill="white"/>
<path d="M86.1439 39.0066C84.787 39.3577 81.1776 39.887 81.6064 41.7885C82.0786 43.8735 88.8251 42.4043 90.6922 41.9829C94.0627 41.2267 97.2053 39.9032 100.57 39.1416C102.709 38.6608 103.235 40.5407 103.615 42.2206C103.74 42.7662 103.854 43.2631 103.827 43.7925C103.713 46.2449 95.1048 48.3732 93.102 48.8215C86.5455 50.2962 74.1923 50.8796 72.26 42.361C70.686 35.4306 80.3472 33.7344 85.4003 32.6001C86.6269 32.3246 87.9133 32.0815 89.1453 31.806C90.2363 31.5575 90.144 31.1524 90.4914 30.9795C90.5565 28.1058 87.3217 29.883 86.6866 30.0234C82.4531 30.9741 78.2521 32.0599 74.0186 33.016C73.1067 33.2213 72.2058 33.4698 71.2993 33.675C68.8841 34.2152 67.538 33.3293 66.9898 30.9309C66.2788 27.8033 72.6074 26.3827 74.8816 25.8695C76.1082 25.594 77.4054 25.3995 78.6375 25.1186C79.4136 24.9458 85.3948 23.6926 85.1397 22.5636C84.9444 21.7047 83.2727 22.1261 82.681 22.2611C79.0391 23.0822 75.5057 24.1571 71.8638 24.9782C70.2681 25.3347 68.439 25.2699 68.0048 23.3685C67.8094 22.5096 67.5489 21.5643 67.7823 20.7054C68.6235 17.2321 80.9768 16.6433 81.4164 14.5906C81.5792 13.8398 81.3621 13.5103 81.1993 12.781C80.8411 11.1983 84.2171 10.4853 85.2646 10.2476C86.0407 10.0748 86.7789 9.95592 87.5496 9.78306C89.1453 9.42654 89.1616 11.1821 90.1114 12.2084C90.8713 13.0349 92.9338 12.6244 93.9325 12.3975C95.0723 12.1436 96.1904 11.7925 97.3247 11.5386C101.195 10.6689 102.964 12.9863 102.703 16.0437C102.552 17.6966 101.205 17.6642 100.798 17.7561C99.9788 17.9397 99.0833 17.9991 98.2637 18.1828C96.5812 18.5609 93.6177 18.3719 93.444 19.933C93.9596 21.1484 96.7386 20.5272 97.7372 20.3003C99.0561 20.0032 100.294 19.5386 101.564 19.2523C104.978 18.4853 105.271 21.0403 105.857 23.6224C106.329 25.7074 98.7576 26.0748 99.1484 27.7979C99.3221 28.5704 102.003 30.2503 102.372 31.8816C101.808 34.8634 96.9665 37.5751 94.6435 38.0937C93.1889 38.4232 89.0313 38.2125 86.1439 39.0066Z" fill="white"/>
<path d="M75.6035 70.4286C78.9523 71.806 81.5305 72.6001 79.7936 76.7972C78.8764 79.0066 75.6904 77.8722 74.1109 77.224C72.868 76.7162 71.7119 76.1058 70.469 75.5981C69.416 75.1659 65.9804 73.3563 64.9383 73.8533C61.1444 75.6737 57.2419 87.8384 50.6582 91.7115C50.0775 92.0464 49.4099 91.8573 48.8074 91.6089C46.8101 90.7878 44.7801 88.465 45.7137 86.2179C48.0747 80.5245 53.676 76.8999 56.037 71.2064C56.3952 70.3422 56.1781 69.9046 55.3151 69.5481C54.9786 69.4076 54.6204 69.305 54.2839 69.17C52.965 68.6298 52.9595 67.7925 53.4589 66.5933C54.0342 65.2051 55.1143 63.0228 56.976 63.4333C57.8118 63.644 58.6639 64.0383 59.4672 64.3246C59.934 64.4704 60.3085 64.6271 60.7807 64.5569C62.6641 64.3678 62.3384 60.592 65.4973 61.8884C66.1378 62.1531 66.7999 62.4664 67.4404 62.7311C68.1568 63.0228 69.3943 63.4441 69.8231 64.1031C70.317 64.8324 69.8502 65.9559 69.5517 66.669C69.085 67.7925 71.7825 68.9431 72.5695 69.2672C73.5736 69.6885 74.5831 70.0126 75.6035 70.4286ZM64.3629 83.9276C66.3766 84.2733 68.9981 86.3584 68.5313 88.0059C68.3251 88.7135 66.4797 88.6973 65.9966 89.8587C65.4376 91.2091 68.3631 92.7594 69.3401 93.1646C71.5979 94.0937 74.0675 93.8776 76.3254 94.8067C78.2468 95.5954 77.3295 97.8047 76.7379 99.2307C75.3701 102.526 69.5409 100.441 67.207 99.4792C65.7036 98.858 64.249 98.2206 62.8649 97.3023C60.7536 95.9087 58.6368 93.6831 57.8769 91.2631C57.4753 89.9991 57.6164 88.7027 58.132 87.4657C58.9462 85.5157 62.0182 83.5332 64.3629 83.9276ZM79.6742 88.9836C76.8899 88.3678 74.2358 85.5211 67.8963 83.7061C64.8189 82.8364 64.5692 81.4212 65.7687 78.5366C66.9031 75.8033 75.419 79.3847 77.3403 80.1733C78.1328 80.4974 78.9089 80.8594 79.7339 81.1997C81.9158 82.0964 83.479 83.2199 82.4206 85.7696C81.9321 86.9309 80.9877 88.9998 79.6742 88.9836Z" fill="white"/>
<path d="M26.2068 81.9829C14.2498 81.9829 2.0485 80.1572 0.219401 72.9836C-0.898686 68.5974 2.26018 63.6764 9.61459 58.3557C10.5861 57.6534 11.943 57.8695 12.6486 58.831C13.3542 59.7979 13.1371 61.1484 12.171 61.8506C6.64026 65.8533 3.8179 69.5211 4.43122 71.9195C5.54388 76.2733 18.6136 79.5576 44.6824 76.4732C55.0762 75.2416 66.6153 73.0646 78.0513 70.1693C95.17 65.8371 111.29 60.1166 123.453 54.0613C139.53 46.0559 144.339 39.7142 143.573 36.7108C142.889 34.037 137.109 31.12 122.921 30.9634C121.722 30.9526 120.761 29.9694 120.772 28.7811C120.783 27.5873 121.792 26.6258 122.965 26.6474C137.945 26.8148 146.293 29.8452 147.774 35.6521C149.859 43.8141 136.751 52.2733 125.391 57.9289C112.962 64.1193 96.5269 69.9532 79.1151 74.3611C67.5 77.2996 55.7655 79.5143 45.1871 80.7676C40.4814 81.3239 33.3875 81.9829 26.2068 81.9829Z" fill="url(#paint0_linear_230_26)"/>
<path d="M114.498 62.985C113.743 64.0653 116.034 66.7176 116.859 68.9917C120.05 77.8344 113.922 85.0727 105.797 87.9789C98.4319 90.6149 88.304 88.1031 85.4437 80.1842C84.1682 76.646 85.0366 71.9141 86.1655 68.4191C86.4044 67.6197 86.8386 66.7068 86.9743 65.8965C86.7463 65.2645 85.5739 65.5886 85.1072 65.7561C84.4287 65.9991 83.7828 66.3232 83.1044 66.5663C81.6226 67.0957 80.6837 67.0039 80.1029 65.4049C79.799 64.5623 79.4136 63.3685 79.5222 62.4718C79.8315 59.3658 88.2498 56.7351 90.6216 55.8871C94.6 54.4664 95.9407 55.2659 97.5147 60.4137C98.763 64.5353 91.5063 68.6514 94.3938 76.6514C95.9135 80.8648 98.9041 81.5994 103.181 80.0707C108.088 78.3151 108.886 74.5609 107.317 70.2233C106.421 67.7385 105.466 65.2267 103.811 63.1578C102.948 62.0883 99.9571 58.4475 99.6097 57.4806C98.9693 55.7142 101.032 51.8844 102.72 51.2794C104.245 50.7338 119.697 55.2875 120.137 56.5083C120.685 58.0261 119.502 62.6825 117.89 63.255C116.49 63.7466 115.404 62.1855 114.498 62.985Z" fill="white"/>
<path d="M110.438 49.7777C112.458 49.7777 114.096 48.1476 114.096 46.1369C114.096 44.1261 112.458 42.4961 110.438 42.4961C108.417 42.4961 106.78 44.1261 106.78 46.1369C106.78 48.1476 108.417 49.7777 110.438 49.7777Z" fill="white"/>
<path d="M119.084 52.7054C120.811 52.7054 122.21 51.3124 122.21 49.594C122.21 47.8756 120.811 46.4826 119.084 46.4826C117.357 46.4826 115.958 47.8756 115.958 49.594C115.958 51.3124 117.357 52.7054 119.084 52.7054Z" fill="white"/>
<path d="M24.4211 26.9661C24.5025 26.9066 24.5948 26.8904 24.6979 26.9066C24.7956 26.9228 24.877 26.9769 24.9367 27.0579L26.527 29.3482C26.6302 29.4941 26.6899 29.6183 26.7061 29.7264C26.7224 29.8344 26.7061 29.937 26.641 30.0451C26.5867 30.1477 26.4999 30.2449 26.3859 30.3368C26.3262 30.38 26.2611 30.434 26.1851 30.4988C26.1797 30.5042 26.1742 30.5042 26.1688 30.5096C26.0928 30.5636 26.006 30.5852 25.9029 30.5852C25.7943 30.5798 25.6966 30.5474 25.6098 30.488C25.5826 30.4664 25.5609 30.4502 25.5446 30.4232C25.5229 30.3908 25.5066 30.3476 25.5066 30.2989C25.5066 30.2233 25.5338 30.1639 25.5989 30.1207H25.6043C25.6966 30.0613 25.8052 29.9856 25.93 29.9046C26.006 29.856 26.0168 29.7966 25.9734 29.7264L25.7129 29.3536C25.6966 29.332 25.6749 29.3266 25.6532 29.3428L24.2963 30.2773C24.2746 30.2935 24.2692 30.3152 24.28 30.3422C24.4211 30.7311 24.4754 31.093 24.4483 31.4279C24.4374 31.5143 24.3994 31.5792 24.3289 31.6278C24.3234 31.6332 24.318 31.6332 24.3126 31.6386C24.2366 31.6872 24.1552 31.7034 24.0575 31.6872C23.9652 31.6764 23.8946 31.6278 23.8404 31.5522C23.7969 31.4873 23.7752 31.4171 23.7807 31.3361C23.7861 31.2551 23.7861 31.1794 23.7861 31.0984C23.7752 30.9093 23.7318 30.7257 23.6613 30.5474C23.5907 30.3692 23.5147 30.2179 23.4387 30.0883C23.3627 29.9586 23.2705 29.8128 23.1565 29.6507L22.5215 28.7324C22.4618 28.6514 22.4455 28.5596 22.4618 28.4569C22.478 28.3543 22.5323 28.2787 22.6137 28.2193L24.4211 26.9661ZM24.546 27.6737C24.5297 27.6521 24.508 27.6467 24.4863 27.6629L23.2325 28.5272C23.2108 28.5434 23.2053 28.565 23.2216 28.5866L23.4116 28.8567C23.4279 28.8783 23.4496 28.8837 23.4713 28.8675L24.7251 28.0032C24.7468 27.987 24.7522 27.9654 24.7359 27.9438L24.546 27.6737ZM23.9706 29.7048C23.9761 29.7156 23.9815 29.721 23.9923 29.7264C24.0032 29.7264 24.0141 29.7264 24.0249 29.721L25.3004 28.8405C25.3221 28.8243 25.3275 28.8027 25.3113 28.7811L25.1213 28.511C25.105 28.4894 25.0833 28.484 25.0616 28.5002L23.8078 29.3644C23.7861 29.3806 23.7807 29.4023 23.7969 29.4239C23.8567 29.5103 23.9164 29.6075 23.9706 29.7048Z" fill="white"/>
<path d="M30.9994 26.0748C31.0428 26.1558 31.0482 26.2368 31.0211 26.3178C30.994 26.4043 30.9451 26.4637 30.8637 26.5069L30.7063 26.5879C30.6737 26.6041 30.6357 26.6095 30.5977 26.5987C30.5597 26.5879 30.5326 26.5663 30.5109 26.5285C30.5055 26.5177 30.5 26.5177 30.4892 26.5231L30.1255 26.7122C30.1147 26.7176 30.1147 26.723 30.1201 26.7338C30.1364 26.7662 30.1418 26.804 30.131 26.8418C30.1201 26.8796 30.093 26.9066 30.0604 26.9282L29.9084 27.0093C29.827 27.0525 29.7456 27.0579 29.6642 27.0309C29.5773 27.0093 29.5122 26.9552 29.4688 26.8742L29.0292 26.0478C29.0183 26.0207 28.9966 26.0153 28.9695 26.0315L28.6329 26.2098C28.6058 26.2206 28.6004 26.2422 28.6167 26.2692L29.3385 27.6305C29.3494 27.6575 29.3711 27.6629 29.3982 27.6467L31.4553 26.5663C31.5259 26.5285 31.6018 26.5231 31.6833 26.5447C31.7647 26.5663 31.8244 26.6203 31.8624 26.6906C31.9004 26.7662 31.9058 26.8418 31.8841 26.9174C31.8569 26.9985 31.8081 27.0579 31.7375 27.0957L29.6696 28.1814C29.6533 28.1868 29.6533 28.2031 29.6588 28.2139C29.6859 28.2679 29.6913 28.3273 29.675 28.3867C29.6533 28.4461 29.6208 28.4893 29.5611 28.5218L29.4742 28.565C29.3928 28.6082 29.3114 28.6136 29.2246 28.5866C29.1377 28.5596 29.0726 28.5056 29.0346 28.4299L28.0468 26.5609C28.0359 26.5339 28.0142 26.5285 27.9871 26.5447L27.7537 26.669C27.6831 26.7068 27.6071 26.7122 27.5257 26.6906C27.4443 26.669 27.3846 26.6149 27.3466 26.5393C27.3086 26.4637 27.2978 26.3881 27.3249 26.307C27.352 26.226 27.4009 26.1666 27.4714 26.1288L27.7048 26.0045C27.732 25.9937 27.7374 25.9721 27.7211 25.9451L27.4823 25.4914C27.4389 25.4103 27.4334 25.3293 27.4606 25.2429C27.4877 25.1565 27.542 25.0916 27.618 25.0538C27.6994 25.0106 27.7808 25.0052 27.8677 25.0322C27.9545 25.0592 28.0196 25.1133 28.0576 25.1889L28.2964 25.6426C28.3073 25.6696 28.329 25.675 28.3561 25.6588L28.6926 25.4806C28.7198 25.4698 28.7252 25.4482 28.7089 25.4212L28.4213 24.881C28.3778 24.8054 28.3724 24.7243 28.3996 24.6379C28.4267 24.5569 28.4755 24.492 28.557 24.4488C28.6384 24.4056 28.7144 24.4002 28.8012 24.4272C28.888 24.4542 28.9477 24.5029 28.9912 24.5839L29.2788 25.1241C29.2897 25.1511 29.3114 25.1565 29.3385 25.1403L29.6588 24.9728C29.6859 24.962 29.6913 24.9404 29.675 24.9134L29.4037 24.4056C29.3602 24.33 29.3548 24.249 29.382 24.1625C29.4091 24.0761 29.4579 24.0167 29.5394 23.9735C29.6208 23.9303 29.7022 23.9249 29.7836 23.9519C29.865 23.9789 29.9301 24.0275 29.9681 24.1085L30.2395 24.6163C30.2504 24.6433 30.2721 24.6487 30.2992 24.6325L30.5543 24.4974C30.6249 24.4596 30.7009 24.4542 30.7823 24.4758C30.8637 24.5029 30.9234 24.5515 30.9614 24.6271C30.9994 24.7027 31.0102 24.7783 30.9831 24.8594C30.956 24.9404 30.9071 24.9998 30.8366 25.0376L30.5815 25.1727C30.5543 25.1835 30.5489 25.2051 30.5652 25.2321L30.9994 26.0748ZM29.8216 26.1666C29.8324 26.1936 29.8542 26.199 29.8813 26.1828L30.2015 26.0153C30.2287 26.0045 30.2341 25.9829 30.2178 25.9559L29.9953 25.54C29.9844 25.513 29.9627 25.5076 29.9356 25.5238L29.6153 25.6912C29.5882 25.702 29.5828 25.7236 29.5991 25.7507L29.8216 26.1666Z" fill="white"/>
<path d="M36.3998 23.3631C36.427 23.4603 36.4107 23.5521 36.3564 23.6386C36.3021 23.725 36.2262 23.779 36.1285 23.806L35.9276 23.8546C35.9222 23.8546 35.9222 23.86 35.9222 23.8655C35.9222 23.8709 35.9276 23.8763 35.9331 23.8763C36.1719 23.9735 36.4324 24.0383 36.7255 24.0599C36.8015 24.0653 36.8612 24.1031 36.8992 24.168C36.91 24.1896 36.9209 24.2112 36.9263 24.2328C36.9372 24.2814 36.9317 24.3246 36.9155 24.3732C36.872 24.4704 36.8069 24.5407 36.7255 24.5947C36.6929 24.6163 36.6549 24.6325 36.6115 24.6433C36.5627 24.6541 36.5084 24.6595 36.4541 24.6487C36.3401 24.6271 36.2316 24.6001 36.1285 24.5623C36.1176 24.5623 36.1122 24.5623 36.1067 24.5677C36.1013 24.5731 36.1013 24.5785 36.1013 24.5893L36.3293 25.4914C36.351 25.5832 36.3401 25.6642 36.2913 25.7399C36.2424 25.8155 36.1773 25.8641 36.0905 25.8857C36.0036 25.9073 35.9168 25.8965 35.8408 25.8479C35.7648 25.7993 35.7105 25.7345 35.6888 25.6426L35.4663 24.7621C35.4446 24.6811 35.4609 24.6055 35.4989 24.5353C35.5423 24.465 35.6074 24.4164 35.6888 24.4002C35.6888 24.4002 35.6942 24.3948 35.6942 24.3894C35.6942 24.384 35.6943 24.3786 35.6888 24.3732C35.5043 24.2814 35.336 24.1734 35.1841 24.0545C35.1623 24.0383 35.1352 24.0329 35.1081 24.0383L34.7824 24.1193C34.7553 24.1247 34.7336 24.1409 34.7227 24.168C34.6413 24.3462 34.5436 24.5137 34.4296 24.6703C34.4242 24.6757 34.4242 24.6811 34.4296 24.6865C34.435 24.6919 34.4405 24.6973 34.4459 24.6919C34.5327 24.6703 34.6142 24.6811 34.6956 24.7297C34.7716 24.7729 34.8204 24.8432 34.8421 24.9242C34.9669 25.4266 34.8313 25.8533 34.435 26.2098C34.3862 26.2422 34.3373 26.2692 34.2885 26.28C34.2505 26.2908 34.2179 26.2908 34.1745 26.2908C34.0823 26.2854 33.99 26.253 33.9086 26.1936C33.8651 26.1612 33.8326 26.1234 33.8217 26.0694C33.8163 26.0478 33.8163 26.0316 33.8109 26.0153C33.8109 25.9397 33.838 25.8749 33.8977 25.8317C34.1745 25.5994 34.2776 25.3401 34.2017 25.0484L34.1908 25.043C34.1908 25.0322 34.1854 25.0322 34.1745 25.0268C34.1637 25.0268 34.1582 25.0268 34.1528 25.0322C34.0605 25.1295 33.9574 25.2267 33.8489 25.3185C33.8054 25.3509 33.7566 25.3779 33.7023 25.3887C33.6643 25.3995 33.6318 25.3995 33.5883 25.3995C33.4906 25.3995 33.4038 25.3671 33.3224 25.3023C33.279 25.2699 33.2518 25.2267 33.241 25.1781C33.2355 25.1565 33.2355 25.1403 33.2355 25.1187C33.2355 25.043 33.2681 24.9836 33.3278 24.9404C33.5666 24.7729 33.7675 24.5839 33.9303 24.3786C33.9357 24.3732 33.9357 24.3678 33.9303 24.3624C33.9249 24.357 33.9194 24.3516 33.914 24.357L33.7457 24.4002C33.648 24.4272 33.5558 24.411 33.4689 24.357C33.3821 24.303 33.3278 24.2274 33.3007 24.1301L33.013 22.985C32.9859 22.8877 33.0022 22.7959 33.0564 22.7095C33.1107 22.623 33.1867 22.569 33.2844 22.542L35.6563 21.9532C35.754 21.9262 35.8462 21.9424 35.9331 21.9964C36.0199 22.0505 36.0742 22.1261 36.1013 22.2233L36.3998 23.3631ZM33.7077 22.958C33.6806 22.9634 33.6698 22.9796 33.6752 23.0066L33.7077 23.1362C33.7132 23.1632 33.7295 23.174 33.7566 23.1686L34.2776 23.039C34.3048 23.0336 34.3156 23.0174 34.3102 22.9904L34.2776 22.8607C34.2722 22.8337 34.2559 22.8229 34.2288 22.8283L33.7077 22.958ZM33.876 23.617C33.8489 23.6224 33.838 23.6386 33.8434 23.6656L33.876 23.8006C33.8814 23.8276 33.8977 23.8384 33.9249 23.833L34.4459 23.7034C34.473 23.698 34.4839 23.6818 34.4785 23.6548L34.4459 23.5197C34.4405 23.4927 34.4242 23.4819 34.3971 23.4873L33.876 23.617ZM35.5151 22.7311C35.5423 22.7257 35.5531 22.7095 35.5477 22.6825L35.5151 22.5528C35.5097 22.5258 35.4934 22.515 35.4663 22.5204L34.9398 22.6501C34.9127 22.6555 34.9018 22.6717 34.9072 22.6987L34.9398 22.8283C34.9452 22.8553 34.9615 22.8661 34.9887 22.8607L35.5151 22.7311ZM35.1026 23.4981C35.1081 23.5251 35.1244 23.5359 35.1515 23.5305L35.678 23.4009C35.7051 23.3955 35.716 23.3793 35.7105 23.3523L35.678 23.2172C35.6725 23.1902 35.6563 23.1794 35.6291 23.1848L35.1026 23.3145C35.0755 23.3199 35.0647 23.3361 35.0701 23.3631L35.1026 23.4981Z" fill="white"/>
<path d="M41.8818 22.4448C41.9198 22.3746 41.9795 22.3313 42.0555 22.3097C42.0609 22.3043 42.0717 22.3043 42.0772 22.2989C42.1477 22.2827 42.2183 22.2935 42.278 22.3313C42.3486 22.3692 42.392 22.4286 42.4083 22.5042C42.4245 22.5798 42.4137 22.65 42.3648 22.7149C42.2671 22.8499 42.1694 22.9742 42.0772 23.0876C42.0609 23.1092 42.0555 23.1308 42.0772 23.1524C42.2237 23.3523 42.3811 23.5089 42.5439 23.6278C42.6199 23.6764 42.6688 23.7412 42.6959 23.8276C42.6959 23.8384 42.7013 23.8438 42.7013 23.8546C42.7176 23.9303 42.7122 24.0059 42.6796 24.0761C42.6362 24.1625 42.5765 24.2166 42.4951 24.249C42.4842 24.2544 42.468 24.2598 42.4517 24.2652C42.3865 24.2814 42.3214 24.2652 42.2563 24.2274C42.0338 24.0707 41.8384 23.8654 41.6701 23.6062C41.4964 23.3469 41.339 23.0336 41.187 22.6608C41.1816 22.65 41.1762 22.6446 41.1653 22.6392C41.1545 22.6338 41.1436 22.6392 41.1382 22.6446C41.1165 22.6608 41.1056 22.6771 41.1111 22.7041L41.4801 24.33C41.4964 24.411 41.4856 24.4866 41.4421 24.5515C41.3987 24.6217 41.3336 24.6649 41.2522 24.6811C41.1708 24.6973 41.0948 24.6865 41.0242 24.6433C40.9537 24.6001 40.9102 24.5407 40.894 24.4596L40.5683 23.012V23.0066C40.5629 23.012 40.5574 23.012 40.5574 23.0066C40.4326 22.8607 40.2969 22.7311 40.1504 22.6284C40.1449 22.623 40.1395 22.623 40.1287 22.6284C40.1178 22.6338 40.1178 22.6392 40.1232 22.65C40.2698 23.3469 40.3675 23.8276 40.4109 24.1031C40.4543 24.3786 40.4597 24.5515 40.4272 24.6379C40.3783 24.7621 40.2969 24.854 40.1775 24.908C40.1558 24.9188 40.1341 24.9296 40.107 24.935C40.0961 24.9404 40.0798 24.9458 40.0635 24.9512C39.9875 24.9674 39.9061 24.9566 39.8301 24.9188C39.7379 24.8648 39.6619 24.7945 39.6076 24.6973C39.5805 24.6541 39.5533 24.6109 39.5208 24.5731C39.5153 24.5677 39.5099 24.5677 39.5045 24.5677C39.4936 24.5677 39.4936 24.5731 39.4882 24.5785C39.4665 24.6811 39.4394 24.7837 39.4068 24.8756C39.3851 24.9458 39.3308 24.9944 39.2548 25.016C39.244 25.0214 39.2331 25.0268 39.2277 25.0268C39.1625 25.043 39.0974 25.0322 39.0323 24.9998C38.9563 24.962 38.902 24.9026 38.8695 24.827C38.864 24.8107 38.8586 24.7891 38.8532 24.7675C38.8423 24.7081 38.8423 24.6541 38.864 24.5947C38.9454 24.3354 38.9834 24.0761 38.9726 23.8114C38.9617 23.5467 38.9237 23.2821 38.8586 22.9958L38.7121 22.3421C38.7066 22.3151 38.6903 22.3043 38.6632 22.3097L38.5926 22.3259C38.5112 22.3421 38.4407 22.3313 38.3701 22.2881C38.305 22.2449 38.2616 22.1855 38.2399 22.1099C38.2236 22.0342 38.2344 21.9586 38.2778 21.8938C38.3213 21.829 38.381 21.7858 38.4624 21.7642L38.7121 21.7101C38.7392 21.7047 38.75 21.6885 38.7446 21.6615L38.6795 21.3752C38.6632 21.2942 38.6741 21.2186 38.7175 21.1484C38.7609 21.0781 38.826 21.0349 38.9075 21.0133C38.9889 20.9971 39.0649 21.0079 39.1354 21.0511C39.206 21.0943 39.2494 21.1592 39.2711 21.2402L39.3362 21.5265C39.3417 21.5535 39.3579 21.5643 39.3851 21.5589L39.6836 21.4941C39.7542 21.4779 39.8247 21.4887 39.8898 21.5319C39.955 21.5751 39.993 21.6291 40.0093 21.6993C40.0093 21.6993 40.0093 21.7047 40.0147 21.7047C40.0201 21.7047 40.0201 21.7047 40.0255 21.6993C40.0907 21.4995 40.1341 21.2834 40.1504 21.0457C40.1558 20.9593 40.1884 20.8837 40.2535 20.8189C40.3023 20.7702 40.3512 20.7378 40.4109 20.727C40.4326 20.7216 40.4543 20.7216 40.476 20.7216C40.5629 20.7216 40.6334 20.7486 40.6986 20.8134C40.7366 20.8513 40.7637 20.8945 40.7745 20.9485C40.78 20.9755 40.78 21.0025 40.78 21.0349C40.78 21.0457 40.78 21.0565 40.78 21.0673C40.78 21.0781 40.7854 21.0889 40.7908 21.0943C40.7963 21.0997 40.8071 21.0997 40.8125 21.0997L41.7461 20.8891C41.8221 20.8729 41.8926 20.8837 41.9632 20.9269C42.0283 20.9701 42.0717 21.0295 42.088 21.1051C42.1043 21.1808 42.0935 21.251 42.05 21.3158C42.0066 21.3806 41.9469 21.4238 41.8709 21.4401L40.7148 21.6993C40.6877 21.7047 40.6714 21.7209 40.6606 21.748C40.6226 21.8938 40.5792 22.0234 40.5249 22.1531C40.4869 22.2341 40.4272 22.2881 40.3403 22.3151C40.3295 22.3151 40.3241 22.3205 40.3132 22.3205C40.2372 22.3367 40.1612 22.3313 40.0907 22.2935C40.0255 22.2665 39.9658 22.2395 39.9061 22.2125C39.879 22.2017 39.8573 22.1801 39.8464 22.1477C39.8356 22.1153 39.841 22.0883 39.8573 22.0613C39.8573 22.0613 39.8573 22.0559 39.8519 22.0559C39.8519 22.0559 39.8464 22.0505 39.8464 22.0559L39.2657 22.1855C39.2385 22.1909 39.2277 22.2071 39.2331 22.2341L39.2928 22.488C39.2982 22.515 39.3145 22.5258 39.3417 22.5204L39.8356 22.407C39.8898 22.3962 39.9441 22.4016 39.9875 22.434C40.031 22.4664 40.0635 22.5096 40.0798 22.5636C40.0852 22.5798 40.0907 22.5798 40.107 22.5744C40.3403 22.4664 40.5792 22.3313 40.818 22.1747C41.0568 22.018 41.263 21.856 41.4313 21.6993C41.491 21.6399 41.5615 21.6021 41.6375 21.5859C41.7135 21.5697 41.7949 21.5751 41.8709 21.6075C41.9361 21.6345 41.9795 21.6831 41.9958 21.7588C42.012 21.8236 41.9958 21.883 41.9469 21.9316C41.8492 22.0342 41.7461 22.1369 41.6267 22.2449C41.605 22.2665 41.5995 22.2881 41.6104 22.3097C41.6647 22.434 41.7027 22.5312 41.7298 22.596C41.7352 22.6014 41.7407 22.6068 41.7515 22.6068C41.7624 22.6068 41.7678 22.6068 41.7732 22.596C41.8221 22.542 41.8546 22.4934 41.8818 22.4448ZM39.6239 23.0768C39.6185 23.0498 39.6022 23.039 39.575 23.0444L39.4773 23.066C39.4502 23.0714 39.4394 23.0876 39.4448 23.1146C39.5425 23.6332 39.5642 24.0869 39.4991 24.4758C39.4936 24.4866 39.4991 24.492 39.5045 24.5028C39.5099 24.5137 39.5208 24.5137 39.5316 24.5137C39.6076 24.5028 39.6782 24.492 39.7379 24.4812C39.7867 24.4704 39.8247 24.438 39.841 24.3894C39.8519 24.3462 39.8464 24.2274 39.8139 24.0383C39.7867 23.8438 39.7216 23.5251 39.6239 23.0768Z" fill="white"/>
<path d="M44.4327 20.0194C44.487 19.9384 44.5521 19.8736 44.639 19.8357C44.677 19.8195 44.715 19.8087 44.7475 19.8033C44.8018 19.7925 44.8561 19.7979 44.9049 19.8087C44.9863 19.8249 45.046 19.8736 45.0786 19.9492C45.0895 19.9654 45.0949 19.987 45.0949 20.0086C45.1057 20.0626 45.0949 20.1166 45.0623 20.1653C44.9701 20.3111 44.8669 20.4569 44.753 20.6082C44.639 20.7594 44.525 20.8999 44.411 21.0241C44.3676 21.0727 44.3187 21.0998 44.2645 21.1106C44.2428 21.116 44.2211 21.116 44.1993 21.1106C44.1179 21.1052 44.0474 21.0727 43.9931 21.0133C43.9497 20.9647 43.9225 20.9107 43.9117 20.8513C43.9117 20.8351 43.9062 20.8189 43.9062 20.7973C43.9062 20.7162 43.9334 20.6406 43.9931 20.5812C44.0745 20.4894 44.1559 20.3921 44.2428 20.2895C44.3133 20.1977 44.3785 20.1058 44.4327 20.0194ZM44.7801 20.9431C44.8235 20.8567 44.8832 20.7973 44.9592 20.754C44.9972 20.7324 45.0406 20.7216 45.084 20.7108C45.1275 20.7054 45.1763 20.7054 45.2197 20.7162C45.3011 20.7324 45.3608 20.781 45.3988 20.8513C45.4097 20.8783 45.4206 20.9107 45.426 20.9377C45.4314 20.9809 45.426 21.0295 45.4043 21.0781C45.3446 21.2132 45.2794 21.3428 45.2089 21.4671C45.198 21.4941 45.1926 21.5211 45.198 21.5481L45.5074 23.4333C45.5237 23.5197 45.502 23.5954 45.4531 23.671C45.4043 23.7412 45.3337 23.7844 45.2469 23.8006C45.16 23.8168 45.084 23.7952 45.0081 23.7466C44.9375 23.698 44.8941 23.6278 44.8778 23.5413L44.6824 22.353C44.6824 22.3422 44.677 22.3368 44.6715 22.3368C44.6661 22.3368 44.6607 22.3368 44.6553 22.3422C44.6118 22.3962 44.5521 22.434 44.4816 22.4448C44.4707 22.4448 44.4599 22.4448 44.4436 22.4448C44.3567 22.4502 44.2862 22.4232 44.2211 22.3638C44.2156 22.3584 44.2102 22.353 44.2048 22.3476C44.1451 22.2935 44.1125 22.2287 44.1016 22.1531C44.1016 22.1369 44.0962 22.1261 44.0962 22.1153C44.0908 22.0235 44.1179 21.9424 44.1776 21.8722C44.2862 21.7426 44.3947 21.6021 44.4979 21.4455C44.6064 21.2672 44.6987 21.1052 44.7801 20.9431ZM47.3039 19.5386C47.3853 19.5224 47.4613 19.544 47.5319 19.5873C47.597 19.6359 47.6404 19.7007 47.6513 19.7817C47.6676 19.8628 47.6459 19.9384 47.6024 20.0032C47.5536 20.068 47.4885 20.1112 47.4071 20.122L45.909 20.3651C45.8276 20.3759 45.7516 20.3597 45.6865 20.3111C45.6214 20.2625 45.578 20.1977 45.5671 20.1166C45.5562 20.0356 45.5725 19.96 45.6214 19.8952C45.6702 19.8303 45.7354 19.7871 45.8168 19.7763L47.3039 19.5386ZM47.6024 20.7054C47.6839 20.6946 47.7599 20.7108 47.825 20.7594C47.8955 20.8081 47.9335 20.8729 47.9444 20.9539C47.9552 21.0349 47.939 21.1106 47.8901 21.1754C47.8413 21.2402 47.7761 21.2834 47.6947 21.2942L47.4722 21.332C47.4451 21.3374 47.4342 21.3536 47.4342 21.3806L47.6459 22.6825C47.673 22.8499 47.673 22.9796 47.6513 23.0714C47.6296 23.1632 47.5699 23.2443 47.4722 23.3091C47.3799 23.3739 47.2062 23.4333 46.962 23.4873C46.9566 23.4873 46.9511 23.4873 46.9403 23.4927C46.8589 23.5089 46.7775 23.4927 46.7015 23.4441C46.6201 23.3955 46.5549 23.3253 46.5115 23.2334C46.5006 23.2118 46.4898 23.1848 46.4898 23.1632C46.4844 23.1146 46.4898 23.0714 46.5115 23.0228C46.5441 22.9526 46.5983 22.9147 46.6743 22.9039H46.6798C46.7503 22.8931 46.8317 22.8823 46.9186 22.8661C46.9837 22.8553 47.0163 22.8229 47.0054 22.7689L46.7937 21.4833C46.7883 21.4563 46.772 21.4455 46.7449 21.4509L45.909 21.5859C45.8276 21.5967 45.7516 21.5805 45.6865 21.5319C45.6214 21.4833 45.578 21.4185 45.5671 21.3374C45.5562 21.2564 45.5725 21.1808 45.6214 21.116C45.6702 21.0457 45.7354 21.0079 45.8168 20.9971L47.6024 20.7054Z" fill="white"/>
</g>
<defs>
<linearGradient id="paint0_linear_230_26" x1="-0.00313089" y1="54.3184" x2="147.998" y2="54.3184" gradientUnits="userSpaceOnUse">
<stop stop-color="#FFDD15"/>
<stop offset="1" stop-color="#FAD12C"/>
</linearGradient>
<clipPath id="clip0_230_26">
<rect width="148" height="112" fill="white"/>
</clipPath>
</defs>
</svg>
